<svg width="12" height="12" viewBox="0 0 12 12" fill="none" xmlns="http://www.w3.org/2000/svg">
<path fill-rule="evenodd" clip-rule="evenodd" d="M0 6C0 2.688 2.688 0 6 0C9.312 0 12 2.688 12 6C12 9.312 9.312 12 6 12C2.688 12 0 9.312 0 6ZM6.6 8.4V9.6H5.4V8.4H6.6ZM6 10.8C3.354 10.8 1.2 8.646 1.2 6C1.2 3.354 3.354 1.2 6 1.2C8.646 1.2 10.8 3.354 10.8 6C10.8 8.646 8.646 10.8 6 10.8ZM3.6 4.8C3.6 3.474 4.674 2.4 6 2.4C7.326 2.4 8.4 3.474 8.4 4.8C8.4 5.56975 7.92599 5.98399 7.46446 6.38732C7.02661 6.76996 6.6 7.14278 6.6 7.8H5.4C5.4 6.70724 5.96527 6.27395 6.46227 5.89301C6.85214 5.59416 7.2 5.32753 7.2 4.8C7.2 4.14 6.66 3.6 6 3.6C5.34 3.6 4.8 4.14 4.8 4.8H3.6Z" fill="black" fill-opacity="0.54"/>
</svg>
